<svg xmlns="http://www.w3.org/2000/svg" width="11.784" height="14.066" viewBox="0 0 11.784 14.066"><defs><style>.a{fill:#391375;opacity:0.24;}.b{fill:none;stroke:#391375;stroke-miterlimit:10;stroke-width:0.5px;}</style></defs><g transform="translate(-1362.151 -542.095)"><path class="a" d="M1363.145,546.032v7.588a2.537,2.537,0,0,0,3.928,2.122l5.715-3.744a2.538,2.538,0,0,0,.026-4.229l-5.716-3.843A2.538,2.538,0,0,0,1363.145,546.032Z"/><path class="b" d="M1362.4,544.916V552.5a2.537,2.537,0,0,0,3.928,2.123l5.715-3.745a2.537,2.537,0,0,0,.026-4.228l-5.716-3.843A2.537,2.537,0,0,0,1362.4,544.916Z"/></g></svg>